#N canvas 0 22 880 611 10;
#X floatatom 326 250 5 0 0 0 - - -, f 5;
#X obj 326 347 mtof;
#X obj 454 292 moses 1;
#X floatatom 462 316 5 0 0 0 - - -, f 5;
#X obj 454 357 line~;
#X obj 454 333 pack 0 100;
#N canvas 0 22 491 369 adsr 0;
#X obj 176 158 inlet;
#X obj 175 230 line~;
#X obj 175 256 outlet~;
#X obj 213 202 bng 15 250 50 0 empty empty empty 17 7 0 10 -262144
-1 -1;
#X obj 238 201 del 100;
#X msg 292 200 0 100;
#X msg 175 200 0.2 2;
#X connect 0 0 6 0;
#X connect 1 0 2 0;
#X connect 3 0 4 0;
#X connect 4 0 5 0;
#X connect 5 0 1 0;
#X connect 6 0 3 0;
#X connect 6 0 1 0;
#X restore 368 347 pd adsr;
#X obj 326 305 t f b;
#X obj 456 244 hsl 128 15 0 1 0 0 empty empty empty -2 -8 0 10 -262144
-1 -1 0 1;
#N canvas 187 182 588 521 rndline 0;
#X obj 166 290 pack;
#X obj 122 137 random 1000;
#X obj 122 158 / 1000;
#X obj 135 361 ==;
#X obj 159 324 line;
#X obj 241 187 exp;
#X obj 236 159 / 100;
#X obj 49 -10 inlet;
#X text 102 -16 start;
#X obj 251 413 outlet;
#X obj 90 396 moses 0.1;
#X obj 74 437 delay 1000;
#X obj 241 213 int;
#X obj 234 134 random 950;
#X obj 196 264 + 300;
#X obj 313 334 +;
#X obj 338 268 random 950;
#X obj 264 236 t f f;
#X obj 54 22 t b b b;
#X connect 0 0 4 0;
#X connect 1 0 2 0;
#X connect 2 0 0 0;
#X connect 2 0 3 1;
#X connect 3 0 10 0;
#X connect 4 0 9 0;
#X connect 4 0 3 0;
#X connect 5 0 12 0;
#X connect 6 0 5 0;
#X connect 7 0 18 0;
#X connect 10 1 11 0;
#X connect 11 0 18 0;
#X connect 12 0 14 0;
#X connect 12 0 17 0;
#X connect 13 0 6 0;
#X connect 14 0 0 1;
#X connect 15 0 11 1;
#X connect 16 0 15 1;
#X connect 17 0 15 0;
#X connect 17 1 16 1;
#X connect 18 0 1 0;
#X connect 18 1 13 0;
#X connect 18 2 16 0;
#X restore 458 212 pd rndline;
#X obj 461 191 bng 15 250 50 0 empty empty empty 17 7 0 10 -262144
-1 -1;
#X obj 461 168 loadbang;
#X obj 326 392 rj/s_buzz;
#X obj 326 420 *~;
#X obj 326 168 inlet;
#X text 317 122 note value;
#X obj 326 453 outlet~;
#X connect 0 0 7 0;
#X connect 1 0 12 0;
#X connect 2 0 3 0;
#X connect 2 0 5 0;
#X connect 4 0 12 1;
#X connect 5 0 4 0;
#X connect 6 0 13 1;
#X connect 7 0 1 0;
#X connect 7 1 6 0;
#X connect 8 0 2 0;
#X connect 9 0 8 0;
#X connect 10 0 9 0;
#X connect 11 0 10 0;
#X connect 12 0 13 0;
#X connect 13 0 16 0;
#X connect 14 0 0 0;
