#N canvas 0 22 892 796 10;
#X obj 334 408 loadbang;
#N canvas 15 98 781 670 presets 0;
#X obj -1 30 inlet;
#X obj -1 68 route default large large_noexcursion huge huge_noexcursion
tadada;
#X obj -1 587 s \$0-GUI;
#X msg -1 134 predelay 0 \, bandwidth 22050 \, damping 22050 \, decay
0.5 \, input_diffusion1 0.75 \, input_diffusion2 0.625 \, decay_diffusion1
0.7 \, decay_diffusion2 0.5 \, excursion 0.53761 \;;
#X msg 135 274 predelay 0 \, bandwidth 10000 \, damping 4637 \, decay
0.98 \, input_diffusion1 0.685 \, input_diffusion2 0.779 \, decay_diffusion1
0.74 \, decay_diffusion2 0.68 \, excursion 0 \,;
#X msg 67 197 predelay 0 \, bandwidth 10000 \, damping 4637 \, decay
0.98 \, input_diffusion1 0.685 \, input_diffusion2 0.779 \, decay_diffusion1
0.74 \, decay_diffusion2 0.68 \, excursion 0.53761 \,;
#X msg 206 350 predelay 10 \, bandwidth 10000 \, damping 4637 \, decay
0.99 \, input_diffusion1 0.685 \, input_diffusion2 0.779 \, decay_diffusion1
0.889 \, decay_diffusion2 0.84 \, excursion 0.53761 \;;
#X msg 340 525 predelay 216.535 \, bandwidth 22050 \, damping 22050
\, decay 0.677165 \, input_diffusion1 0.850394 \, input_diffusion2
0.92126 \, decay_diffusion1 0.80315 \, decay_diffusion2 0.818898 \,
excursion 0.11811 \;;
#X msg 272 437 predelay 10 \, bandwidth 10000 \, damping 4637 \, decay
0.99 \, input_diffusion1 0.685 \, input_diffusion2 0.779 \, decay_diffusion1
0.889 \, decay_diffusion2 0.84 \, excursion 0 \;;
#X connect 0 0 1 0;
#X connect 1 0 3 0;
#X connect 1 1 5 0;
#X connect 1 2 4 0;
#X connect 1 3 6 0;
#X connect 1 4 8 0;
#X connect 1 5 7 0;
#X connect 3 0 2 0;
#X connect 4 0 2 0;
#X connect 5 0 2 0;
#X connect 6 0 2 0;
#X connect 7 0 2 0;
#X connect 8 0 2 0;
#X restore 348 460 pd presets;
#X msg 347 434 default;
#X obj 299 339 hsl 128 15 0 1 0 0 empty empty empty -2 -8 0 10 -262144
-1 -1 0 1;
#X msg 296 358 dry \$1;
#X obj 296 283 loadbang;
#X msg 296 314 0.33;
#X msg 478 452 1200;
#X msg 344 489 dry 0 \, bq 2 \, basedur \$1 \, bpitch 83 \, feedback
0.99 \, dell 2 \, delr 3 \,;
#X obj 444 411 sel 0 1;
#X obj 442 377 random 3;
#X msg 524 453 900;
#X msg 439 453 0;
#X obj 321 380 r \$0-GUI;
#X obj 204 407 rj/e_platereverb rev;
#X obj 206 563 rj/e_dubdel mydubdel;
#X obj 539 221 inlet;
#X text 593 224 change delay time;
#X obj 200 163 inlet~;
#X obj 247 163 inlet~;
#X text 189 128 sound sources;
#X obj 206 618 outlet~;
#X obj 266 619 outlet~;
#X connect 0 0 8 0;
#X connect 0 0 2 0;
#X connect 2 0 1 0;
#X connect 3 0 4 0;
#X connect 4 0 14 2;
#X connect 5 0 6 0;
#X connect 6 0 3 0;
#X connect 7 0 8 0;
#X connect 8 0 15 2;
#X connect 9 0 12 0;
#X connect 9 1 7 0;
#X connect 9 2 11 0;
#X connect 10 0 9 0;
#X connect 11 0 8 0;
#X connect 12 0 8 0;
#X connect 13 0 14 2;
#X connect 14 0 15 0;
#X connect 14 1 15 1;
#X connect 15 0 21 0;
#X connect 15 1 22 0;
#X connect 16 0 10 0;
#X connect 18 0 14 0;
#X connect 19 0 14 1;
