#N canvas 0 22 1123 716 10;
#X msg 563 275 cp;
#N canvas 0 22 450 300 rand 0;
#X obj 94 158 outlet;
#X obj 94 22 inlet;
#X obj 94 47 t b a;
#X obj 94 123 list prepend;
#X obj 94 100 + 80;
#X obj 94 73 random 20;
#X floatatom 134 101 5 0 0 0 - - -, f 5;
#X connect 1 0 2 0;
#X connect 2 0 5 0;
#X connect 2 1 3 1;
#X connect 3 0 0 0;
#X connect 4 0 3 0;
#X connect 5 0 4 0;
#X connect 6 0 4 1;
#X restore 563 308 pd rand;
#N canvas 0 22 755 571 pass 0;
#X obj 67 88 random 100;
#X obj 67 158 sel 1;
#X obj 67 202 outlet;
#X obj 67 29 inlet;
#X obj 172 29 inlet;
#X obj 67 111 < 100;
#X obj 67 179 list;
#X obj 67 55 t b a;
#X floatatom 130 114 5 0 100 0 - - -, f 5;
#X connect 0 0 5 0;
#X connect 1 0 6 0;
#X connect 3 0 7 0;
#X connect 4 0 5 1;
#X connect 5 0 1 0;
#X connect 6 0 2 0;
#X connect 7 0 0 0;
#X connect 7 1 6 1;
#X connect 8 0 5 1;
#X coords 0 -1 1 1 85 30 1 100 100;
#X restore 563 343 pd pass;
#X msg 213 354 bd \$1;
#X msg 293 354 sn \$1;
#X msg 398 355 hh \$1;
#X obj 398 310 f;
#X obj 242 447 rj/s_drumelectro;
#X obj 463 646 outlet~;
#N canvas 0 22 519 332 gen 0;
#X obj 199 170 hsl 128 15 0 1 0 0 empty empty empty -2 -8 0 10 -262144
-1 -1 0 1;
#N canvas 187 182 588 521 rndline 0;
#X obj 166 290 pack;
#X obj 122 137 random 1000;
#X obj 122 158 / 1000;
#X obj 135 361 ==;
#X obj 159 324 line;
#X obj 241 187 exp;
#X obj 236 159 / 100;
#X obj 49 -10 inlet;
#X text 102 -16 start;
#X obj 251 413 outlet;
#X obj 90 396 moses 0.1;
#X obj 74 437 delay 1000;
#X obj 241 213 int;
#X obj 234 134 random 950;
#X obj 196 264 + 300;
#X obj 313 334 +;
#X obj 338 268 random 950;
#X obj 264 236 t f f;
#X obj 54 22 t b b b;
#X connect 0 0 4 0;
#X connect 1 0 2 0;
#X connect 2 0 0 0;
#X connect 2 0 3 1;
#X connect 3 0 10 0;
#X connect 4 0 9 0;
#X connect 4 0 3 0;
#X connect 5 0 12 0;
#X connect 6 0 5 0;
#X connect 7 0 18 0;
#X connect 10 1 11 0;
#X connect 11 0 18 0;
#X connect 12 0 14 0;
#X connect 12 0 17 0;
#X connect 13 0 6 0;
#X connect 14 0 0 1;
#X connect 15 0 11 1;
#X connect 16 0 15 1;
#X connect 17 0 15 0;
#X connect 17 1 16 1;
#X connect 18 0 1 0;
#X connect 18 1 13 0;
#X connect 18 2 16 0;
#X restore 196 148 pd rndline;
#X obj 196 126 bng 15 250 50 0 empty empty empty 17 7 0 10 -262144
-1 -1;
#X obj 196 103 loadbang;
#X obj 196 191 * 100;
#X obj 196 218 outlet;
#X connect 0 0 4 0;
#X connect 1 0 0 0;
#X connect 2 0 1 0;
#X connect 3 0 2 0;
#X connect 4 0 5 0;
#X restore 413 284 pd gen;
#X obj 248 124 inlet;
#X text 249 94 note;
#X obj 248 149 sel 40 47 52 56 68 71 73 75 78 80 84;
#X obj 214 280 random 100;
#X obj 214 306 * 5;
#X obj 294 280 random 50;
#X obj 294 306 * 2;
#X msg 494 355 oh;
#X floatatom 827 276 5 0 100 0 - - -, f 5;
#X obj 827 296 / 100;
#X msg 827 318 feedback \$1;
#X floatatom 926 267 5 0 0 0 - - -, f 5;
#X obj 926 287 mtof;
#X msg 926 316 lpfreq \$1;
#X floatatom 962 288 5 0 0 0 - - -, f 5;
#X msg 930 406 pickuppos \$1;
#X msg 827 407 pluckpos \$1;
#X floatatom 827 365 5 0 0 0 - - -, f 5;
#X obj 827 385 / 100;
#X floatatom 930 365 5 0 0 0 - - -, f 5;
#X obj 930 385 / 100;
#X obj 688 272 mtof;
#X obj 686 475 rj/s_guitar myguitar;
#N canvas 0 22 519 332 gen 0;
#X obj 199 170 hsl 128 15 0 1 0 0 empty empty empty -2 -8 0 10 -262144
-1 -1 2838 1;
#N canvas 187 182 588 521 rndline 0;
#X obj 166 290 pack;
#X obj 122 137 random 1000;
#X obj 122 158 / 1000;
#X obj 135 361 ==;
#X obj 159 324 line;
#X obj 241 187 exp;
#X obj 236 159 / 100;
#X obj 49 -10 inlet;
#X text 102 -16 start;
#X obj 251 413 outlet;
#X obj 90 396 moses 0.1;
#X obj 74 437 delay 1000;
#X obj 241 213 int;
#X obj 234 134 random 950;
#X obj 196 264 + 300;
#X obj 313 334 +;
#X obj 338 268 random 950;
#X obj 264 236 t f f;
#X obj 54 22 t b b b;
#X connect 0 0 4 0;
#X connect 1 0 2 0;
#X connect 2 0 0 0;
#X connect 2 0 3 1;
#X connect 3 0 10 0;
#X connect 4 0 9 0;
#X connect 4 0 3 0;
#X connect 5 0 12 0;
#X connect 6 0 5 0;
#X connect 7 0 18 0;
#X connect 10 1 11 0;
#X connect 11 0 18 0;
#X connect 12 0 14 0;
#X connect 12 0 17 0;
#X connect 13 0 6 0;
#X connect 14 0 0 1;
#X connect 15 0 11 1;
#X connect 16 0 15 1;
#X connect 17 0 15 0;
#X connect 17 1 16 1;
#X connect 18 0 1 0;
#X connect 18 1 13 0;
#X connect 18 2 16 0;
#X restore 196 148 pd rndline;
#X obj 196 126 bng 15 250 50 0 empty empty empty 17 7 0 10 -262144
-1 -1;
#X obj 196 103 loadbang;
#X obj 196 191 * 100;
#X obj 196 218 outlet;
#X connect 0 0 4 0;
#X connect 1 0 0 0;
#X connect 2 0 1 0;
#X connect 3 0 2 0;
#X connect 4 0 5 0;
#X restore 827 247 pd gen;
#N canvas 0 22 519 332 gen 0;
#X obj 199 170 hsl 128 15 0 1 0 0 empty empty empty -2 -8 0 10 -262144
-1 -1 9560 1;
#N canvas 187 182 588 521 rndline 0;
#X obj 166 290 pack;
#X obj 122 137 random 1000;
#X obj 122 158 / 1000;
#X obj 135 361 ==;
#X obj 159 324 line;
#X obj 241 187 exp;
#X obj 236 159 / 100;
#X obj 49 -10 inlet;
#X text 102 -16 start;
#X obj 251 413 outlet;
#X obj 90 396 moses 0.1;
#X obj 74 437 delay 1000;
#X obj 241 213 int;
#X obj 234 134 random 950;
#X obj 196 264 + 300;
#X obj 313 334 +;
#X obj 338 268 random 950;
#X obj 264 236 t f f;
#X obj 54 22 t b b b;
#X connect 0 0 4 0;
#X connect 1 0 2 0;
#X connect 2 0 0 0;
#X connect 2 0 3 1;
#X connect 3 0 10 0;
#X connect 4 0 9 0;
#X connect 4 0 3 0;
#X connect 5 0 12 0;
#X connect 6 0 5 0;
#X connect 7 0 18 0;
#X connect 10 1 11 0;
#X connect 11 0 18 0;
#X connect 12 0 14 0;
#X connect 12 0 17 0;
#X connect 13 0 6 0;
#X connect 14 0 0 1;
#X connect 15 0 11 1;
#X connect 16 0 15 1;
#X connect 17 0 15 0;
#X connect 17 1 16 1;
#X connect 18 0 1 0;
#X connect 18 1 13 0;
#X connect 18 2 16 0;
#X restore 196 148 pd rndline;
#X obj 196 126 bng 15 250 50 0 empty empty empty 17 7 0 10 -262144
-1 -1;
#X obj 196 103 loadbang;
#X obj 196 191 * 100;
#X obj 196 218 outlet;
#X connect 0 0 4 0;
#X connect 1 0 0 0;
#X connect 2 0 1 0;
#X connect 3 0 2 0;
#X connect 4 0 5 0;
#X restore 926 244 pd gen;
#N canvas 0 22 519 332 gen 0;
#X obj 199 170 hsl 128 15 0 1 0 0 empty empty empty -2 -8 0 10 -262144
-1 -1 10705 1;
#N canvas 187 182 588 521 rndline 0;
#X obj 166 290 pack;
#X obj 122 137 random 1000;
#X obj 122 158 / 1000;
#X obj 135 361 ==;
#X obj 159 324 line;
#X obj 241 187 exp;
#X obj 236 159 / 100;
#X obj 49 -10 inlet;
#X text 102 -16 start;
#X obj 251 413 outlet;
#X obj 90 396 moses 0.1;
#X obj 74 437 delay 1000;
#X obj 241 213 int;
#X obj 234 134 random 950;
#X obj 196 264 + 300;
#X obj 313 334 +;
#X obj 338 268 random 950;
#X obj 264 236 t f f;
#X obj 54 22 t b b b;
#X connect 0 0 4 0;
#X connect 1 0 2 0;
#X connect 2 0 0 0;
#X connect 2 0 3 1;
#X connect 3 0 10 0;
#X connect 4 0 9 0;
#X connect 4 0 3 0;
#X connect 5 0 12 0;
#X connect 6 0 5 0;
#X connect 7 0 18 0;
#X connect 10 1 11 0;
#X connect 11 0 18 0;
#X connect 12 0 14 0;
#X connect 12 0 17 0;
#X connect 13 0 6 0;
#X connect 14 0 0 1;
#X connect 15 0 11 1;
#X connect 16 0 15 1;
#X connect 17 0 15 0;
#X connect 17 1 16 1;
#X connect 18 0 1 0;
#X connect 18 1 13 0;
#X connect 18 2 16 0;
#X restore 196 148 pd rndline;
#X obj 196 126 bng 15 250 50 0 empty empty empty 17 7 0 10 -262144
-1 -1;
#X obj 196 103 loadbang;
#X obj 196 191 * 100;
#X obj 196 218 outlet;
#X connect 0 0 4 0;
#X connect 1 0 0 0;
#X connect 2 0 1 0;
#X connect 3 0 2 0;
#X connect 4 0 5 0;
#X restore 827 344 pd gen;
#N canvas 0 22 519 332 gen 0;
#X obj 199 170 hsl 128 15 0 1 0 0 empty empty empty -2 -8 0 10 -262144
-1 -1 7025 1;
#N canvas 187 182 588 521 rndline 0;
#X obj 166 290 pack;
#X obj 122 137 random 1000;
#X obj 122 158 / 1000;
#X obj 135 361 ==;
#X obj 159 324 line;
#X obj 241 187 exp;
#X obj 236 159 / 100;
#X obj 49 -10 inlet;
#X text 102 -16 start;
#X obj 251 413 outlet;
#X obj 90 396 moses 0.1;
#X obj 74 437 delay 1000;
#X obj 241 213 int;
#X obj 234 134 random 950;
#X obj 196 264 + 300;
#X obj 313 334 +;
#X obj 338 268 random 950;
#X obj 264 236 t f f;
#X obj 54 22 t b b b;
#X connect 0 0 4 0;
#X connect 1 0 2 0;
#X connect 2 0 0 0;
#X connect 2 0 3 1;
#X connect 3 0 10 0;
#X connect 4 0 9 0;
#X connect 4 0 3 0;
#X connect 5 0 12 0;
#X connect 6 0 5 0;
#X connect 7 0 18 0;
#X connect 10 1 11 0;
#X connect 11 0 18 0;
#X connect 12 0 14 0;
#X connect 12 0 17 0;
#X connect 13 0 6 0;
#X connect 14 0 0 1;
#X connect 15 0 11 1;
#X connect 16 0 15 1;
#X connect 17 0 15 0;
#X connect 17 1 16 1;
#X connect 18 0 1 0;
#X connect 18 1 13 0;
#X connect 18 2 16 0;
#X restore 196 148 pd rndline;
#X obj 196 126 bng 15 250 50 0 empty empty empty 17 7 0 10 -262144
-1 -1;
#X obj 196 103 loadbang;
#X obj 196 191 * 100;
#X obj 196 218 outlet;
#X connect 0 0 4 0;
#X connect 1 0 0 0;
#X connect 2 0 1 0;
#X connect 3 0 2 0;
#X connect 4 0 5 0;
#X restore 930 345 pd gen;
#X msg 568 190 71;
#X msg 608 190 73;
#X msg 651 190 75;
#X msg 692 190 78;
#X msg 734 190 80;
#X msg 779 190 84;
#X connect 0 0 1 0;
#X connect 1 0 2 0;
#X connect 2 0 7 0;
#X connect 3 0 7 0;
#X connect 4 0 7 0;
#X connect 5 0 7 0;
#X connect 6 0 5 0;
#X connect 7 0 8 0;
#X connect 9 0 6 1;
#X connect 10 0 12 0;
#X connect 12 0 13 0;
#X connect 12 1 15 0;
#X connect 12 2 6 0;
#X connect 12 3 17 0;
#X connect 12 4 0 0;
#X connect 12 5 37 0;
#X connect 12 6 38 0;
#X connect 12 7 39 0;
#X connect 12 8 40 0;
#X connect 12 9 41 0;
#X connect 12 10 42 0;
#X connect 13 0 14 0;
#X connect 14 0 3 0;
#X connect 15 0 16 0;
#X connect 16 0 4 0;
#X connect 17 0 7 0;
#X connect 18 0 19 0;
#X connect 19 0 20 0;
#X connect 20 0 32 1;
#X connect 21 0 22 0;
#X connect 22 0 23 0;
#X connect 22 0 24 0;
#X connect 23 0 32 1;
#X connect 25 0 32 1;
#X connect 26 0 32 1;
#X connect 27 0 28 0;
#X connect 28 0 26 0;
#X connect 29 0 30 0;
#X connect 30 0 25 0;
#X connect 31 0 32 0;
#X connect 32 0 8 0;
#X connect 33 0 18 0;
#X connect 34 0 21 0;
#X connect 35 0 27 0;
#X connect 36 0 29 0;
#X connect 37 0 31 0;
#X connect 38 0 31 0;
#X connect 39 0 31 0;
#X connect 40 0 31 0;
#X connect 41 0 31 0;
#X connect 42 0 31 0;
