#N canvas 0 22 1155 538 10;
#X obj 676 212 r \$0-in1;
#X obj 734 211 s \$0-in1;
#X floatatom 575 210 5 0 0 0 - - -, f 5;
#X obj 552 234 makenote 100 100;
#X obj 575 185 f;
#X obj 483 210 f;
#X obj 552 257 pack 0 0;
#X obj 422 261 makenote 100 100;
#X obj 422 284 pack 0 0;
#X msg 734 187 tone 1;
#X obj 734 159 loadbang;
#X obj 477 231 + 3;
#X obj 590 141 + 36;
#X obj 423 311 rj/s_rhodey mpiano2;
#X obj 555 281 rj/s_rhodey mpiano;
#X obj 591 113 inlet;
#X obj 568 141 bng 15 250 50 0 empty empty empty 17 7 0 10 -262144
-1 -1;
#X text 592 85 note;
#X obj 423 354 outlet~;
#X obj 555 353 outlet~;
#X connect 0 0 13 1;
#X connect 0 0 14 1;
#X connect 2 0 3 0;
#X connect 3 0 6 0;
#X connect 3 1 6 1;
#X connect 4 0 2 0;
#X connect 4 0 5 0;
#X connect 5 0 11 0;
#X connect 6 0 14 0;
#X connect 7 0 8 0;
#X connect 7 1 8 1;
#X connect 8 0 13 0;
#X connect 9 0 1 0;
#X connect 10 0 9 0;
#X connect 11 0 7 0;
#X connect 12 0 4 1;
#X connect 12 0 5 1;
#X connect 13 0 18 0;
#X connect 14 0 19 0;
#X connect 15 0 12 0;
#X connect 15 0 16 0;
#X connect 16 0 4 0;
