#N canvas 225 175 1157 653 10;
#X obj 169 338 hsl 128 15 0 127 0 0 empty empty empty -2 -8 0 10 -262144
-1 -1 0 1;
#X text 309 338 volume;
#X obj 186 360 hsl 128 15 0 10000 0 0 empty empty empty -2 -8 0 10
-262144 -1 -1 0 1;
#X text 322 359 note length;
#X obj 456 339 hsl 128 15 0 127 0 0 empty empty empty -2 -8 0 10 -262144
-1 -1 0 1;
#X text 596 339 volume;
#X obj 473 361 hsl 128 15 0 10000 0 0 empty empty empty -2 -8 0 10
-262144 -1 -1 0 1;
#X text 609 360 note length;
#X obj 728 339 hsl 128 15 0 127 0 0 empty empty empty -2 -8 0 10 -262144
-1 -1 0 1;
#X text 868 339 volume;
#X obj 745 361 hsl 128 15 0 10000 0 0 empty empty empty -2 -8 0 10
-262144 -1 -1 0 1;
#X text 881 360 note length;
#X text 167 132 Simple Midi-Router Patch for SoundBow;
#X text 643 134 (c) Agoston Nagy (Binaura) / 2016;
#N canvas 172 83 586 377 LICENSE-GPL 0;
#X text 57 88 This program is free software: you can redistribute it
and/or modify it under the terms of the GNU General Public License
as published by the Free Software Foundation \, either version 3 of
the License \, or (at your option) any later version.;
#X text 58 168 This program is distributed in the hope that it will
be useful \, but WITHOUT ANY WARRANTY \; without even the implied warranty
of MERCHANTABILITY or FITNESS FOR A PARTICULAR PURPOSE. See the GNU
General Public License for more details.;
#X text 57 261 You should have received a copy of the GNU General Public
License along with this program. If not \, see <http://www.gnu.org/licenses/>.
;
#X text 61 54 Copyright (C) 2016 \, Agoston Nagy;
#X text 60 325 See the file LICENSE for the full license text.;
#X restore 644 171 pd LICENSE-GPL;
#X obj 148 84 cnv 15 100 40 empty empty SoundBow-Midi-Router 20 12
1 24 -262144 -66577 0;
#X text 165 174 This patch demonstrates how to receive midi messages
from SoundBow. You can receive note messages on midi channels 1-2-3.
Open any of the objects below to see how to modify the parameters.
You can set the volume and the length of the notes with the sliders.
For more on how to setup SoundBow as a midi device \, please refer
to http://www.binaura.net/soundbow.;
#X text 642 219 For more on how to use Pure Data \, please visit http://puredata.info
and/or http://en.flossmanuals.net/pure-data;
#X obj 166 390 patches/mChannel 1;
#X obj 166 483 patches/mSound;
#X obj 453 479 patches/mSound;
#X obj 725 477 patches/mSound;
#X obj 453 391 patches/mChannel 2;
#X obj 725 391 patches/mChannel 3;
#N canvas 627 141 450 300 init 1;
#X obj 195 77 loadbang;
#X msg 195 108 \; pd dsp 1 \;;
#X obj 283 134 print Thanks;
#X msg 283 108 for trying out SoundBow;
#X connect 0 0 1 0;
#X connect 0 0 3 0;
#X connect 3 0 2 0;
#X restore 739 171 pd init;
#X connect 0 0 18 0;
#X connect 2 0 18 1;
#X connect 4 0 22 0;
#X connect 6 0 22 1;
#X connect 8 0 23 0;
#X connect 10 0 23 1;
#X connect 18 0 19 0;
#X connect 18 1 19 1;
#X connect 22 0 20 0;
#X connect 22 1 20 1;
#X connect 23 0 21 0;
#X connect 23 1 21 1;
