#N canvas 521 283 1103 571 10;
#X obj 80 40 notein \$1;
#X obj 394 276 pipe 1000;
#X obj 445 187 inlet;
#X text 492 190 note length;
#X obj 228 168 inlet;
#X text 266 169 note volume;
#X obj 80 422 noteout;
#X obj 119 397 f \$1;
#X obj 80 199 t f b b;
#X obj 229 290 f;
#X obj 394 330 pack f 0 \$1;
#X obj 394 359 unpack f f f;
#X obj 394 424 noteout;
#X text 73 449 send noteOn;
#X text 383 453 send noteOff;
#X text 465 277 delay time for noteOff in milisecs;
#X obj 258 251 spigot 1;
#X msg 303 225 0;
#X obj 303 205 bng 15 250 50 0 empty empty empty 17 7 0 10 -262144
-1 -1;
#X obj 132 84 s \$0-n;
#X obj 394 251 r \$0-n;
#X text 154 38 incoming midi note;
#X obj 362 77 sel 40 47 52 56 68 71 73 75 78 80 84;
#X obj 362 126 bng 15 250 50 0 empty empty empty 17 7 0 10 -262144
-1 -1;
#X obj 382 126 bng 15 250 50 0 empty empty empty 17 7 0 10 -262144
-1 -1;
#X obj 402 126 bng 15 250 50 0 empty empty empty 17 7 0 10 -262144
-1 -1;
#X obj 422 126 bng 15 250 50 0 empty empty empty 17 7 0 10 -262144
-1 -1;
#X obj 442 126 bng 15 250 50 0 empty empty empty 17 7 0 10 -262144
-1 -1;
#X obj 462 126 bng 15 250 50 0 empty empty empty 17 7 0 10 -262144
-1 -1;
#X obj 481 126 bng 15 250 50 0 empty empty empty 17 7 0 10 -262144
-1 -1;
#X obj 501 126 bng 15 250 50 0 empty empty empty 17 7 0 10 -262144
-1 -1;
#X obj 521 126 bng 15 250 50 0 empty empty empty 17 7 0 10 -262144
-1 -1;
#X obj 539 126 bng 15 250 50 0 empty empty empty 17 7 0 10 -262144
-1 -1;
#X obj 559 126 bng 15 250 50 0 empty empty empty 17 7 0 10 -262144
-1 -1;
#X text 366 45 display midi events on parent patch;
#X obj 79 118 spigot;
#X obj 168 424 outlet;
#X text 167 450 note;
#X obj 229 424 outlet;
#X text 228 450 velocity;
#X connect 0 0 19 0;
#X connect 0 0 22 0;
#X connect 0 0 35 0;
#X connect 0 1 16 0;
#X connect 0 1 35 1;
#X connect 1 0 10 0;
#X connect 2 0 1 1;
#X connect 4 0 9 0;
#X connect 4 0 18 0;
#X connect 7 0 6 2;
#X connect 8 0 6 0;
#X connect 8 0 36 0;
#X connect 8 1 9 0;
#X connect 8 2 7 0;
#X connect 9 0 6 1;
#X connect 9 0 38 0;
#X connect 10 0 11 0;
#X connect 11 0 12 0;
#X connect 11 0 36 0;
#X connect 11 1 12 1;
#X connect 11 1 38 0;
#X connect 11 2 12 2;
#X connect 16 0 9 1;
#X connect 17 0 16 1;
#X connect 18 0 17 0;
#X connect 20 0 1 0;
#X connect 22 0 23 0;
#X connect 22 1 24 0;
#X connect 22 2 25 0;
#X connect 22 3 26 0;
#X connect 22 4 27 0;
#X connect 22 5 28 0;
#X connect 22 6 29 0;
#X connect 22 7 30 0;
#X connect 22 8 31 0;
#X connect 22 9 32 0;
#X connect 22 10 33 0;
#X connect 35 0 8 0;
#X coords 0 -1 1 1 240 50 1 350 100;
