#N canvas 0 22 861 574 10;
#X obj 308 270 osc~;
#X obj 308 380 dac~;
#X obj 308 344 *~ 0.2;
#X obj 308 133 inlet;
#X text 292 104 note value (midi);
#X obj 308 174 mtof;
#X text 346 176 convert to frequency;
#X obj 576 133 inlet;
#X text 566 112 velocity (0-128);
#X obj 576 165 / 128;
#X obj 308 312 *~;
#X obj 392 291 line~;
#X msg 392 265 \$1 5;
#X text 441 291 smooth to avoid clicks;
#X connect 0 0 10 0;
#X connect 2 0 1 0;
#X connect 2 0 1 1;
#X connect 3 0 5 0;
#X connect 5 0 0 0;
#X connect 7 0 9 0;
#X connect 9 0 12 0;
#X connect 10 0 2 0;
#X connect 11 0 10 1;
#X connect 12 0 11 0;
